Coordinates
version=1
nRows=12
nColumns=24
inDegrees=yes

Units are S.I. units (second, meters, Newtons, ...)
Angles are in degrees.

endheader
time	pelvis_tilt	pelvis_list	pelvis_rotation	pelvis_tx	pelvis_ty	pelvis_tz	hip_flexion_r	hip_adduction_r	hip_rotation_r	knee_angle_r	ankle_angle_r	subtalar_angle_r	mtp_angle_r	hip_flexion_l	hip_adduction_l	hip_rotation_l	knee_angle_l	ankle_angle_l	subtalar_angle_l	mtp_angle_l	lumbar_extension	lumbar_bending	lumbar_rotation
      1.49516667	     -2.07860811	      6.14199573	     -3.11042294	      0.42499053	      0.90434173	      0.28791788	     16.22465735	    -11.32769229	     -9.18086466	    -64.92523838	      9.62580523	      7.52167519	     10.28368509	     11.96001120	     10.12406546	     -5.31744303	    -18.65961477	      9.71709596	     -8.83806860	     -0.11207630	     -2.52116529	    -10.67246291	      4.10949214
      1.49933333	     -2.02972788	      5.99940090	     -2.83850632	      0.42984640	      0.90543649	      0.28747903	     16.71484966	    -11.16114623	     -9.37082324	    -64.41269509	     10.03880031	      7.18685203	      9.95866955	     11.27947739	     10.07721044	     -4.95204438	    -18.12751706	      9.66149705	     -8.83553218	     -0.07073488	     -2.61407029	    -10.50018661	      3.54689292
      1.50350000	     -1.97646652	      5.81865108	     -2.56659577	      0.43465227	      0.90651425	      0.28708757	     17.18462003	    -10.93404343	     -9.54847906	    -63.83933028	     10.39826112	      6.76812470	      9.78643355	     10.62028624	      9.97063773	     -4.61790736	    -17.65385844	      9.68802778	     -8.74805330	     -0.04879764	     -2.73783976	    -10.29503894	      3.27686693
      1.50766667	     -1.92360009	      5.65308384	     -2.27647059	      0.43943405	      0.90753831	      0.28665233	     17.64724279	    -10.74061405	     -9.74888603	    -63.24059663	     10.74324182	      6.36892631	      9.58631071	      9.96527720	      9.88066801	     -4.26165083	    -17.17541297	      9.67197339	     -8.68589979	     -0.02668867	     -2.86468807	    -10.09844912	      2.86207810
      1.51183333	     -1.88914341	      5.51211681	     -1.97144535	      0.44417878	      0.90847570	      0.28618780	     18.13027294	    -10.58822963	     -9.96171017	    -62.62742122	     11.10080249	      6.00860566	      9.19102160	      9.33592318	      9.81531620	     -3.87728215	    -16.69236725	      9.59081434	     -8.67877997	      0.01149739	     -2.97748142	     -9.93417924	      2.32565017
      1.51600000	     -1.83292294	      5.32445216	     -1.66971217	      0.44893138	      0.90943582	      0.28575174	     18.56020382	    -10.37691183	    -10.18165099	    -61.93480369	     11.34224751	      5.57217844	      9.00018486	      8.69505800	      9.68525302	     -3.52879530	    -16.24698302	      9.63160091	     -8.59731131	      0.03039826	     -3.09821713	     -9.69663386	      2.05712178
      1.52016667	     -1.78952833	      5.14977990	     -1.35044094	      0.45361650	      0.91032309	      0.28530488	     19.00153507	    -10.18353636	    -10.40249396	    -61.21878826	     11.59186913	      5.14669357	      8.82312730	      8.08394623	      9.56412284	     -3.14912435	    -15.81685310	      9.61316612	     -8.52568407	      0.04623238	     -3.24585120	     -9.49596609	      1.67323603
      1.52433333	     -1.75619447	      4.99244533	     -1.01501778	      0.45832154	      0.91113304	      0.28481468	     19.44214126	    -10.03415568	    -10.66491271	    -60.48338646	     11.85730644	      4.71743061	      8.69293192	      7.49528602	      9.45389228	     -2.80399055	    -15.40432387	      9.57523089	     -8.43752491	      0.05760477	     -3.33913079	     -9.28505589	      1.35349283
      1.52850000	     -1.69560860	      4.81411888	     -0.70312779	      0.46302072	      0.91198231	      0.28439227	     19.83611609	     -9.83932965	    -10.88282879	    -59.67335880	     11.98245358	      4.27916128	      8.51222541	      6.86033726	      9.31623975	     -2.41674971	    -14.95637924	      9.58287017	     -8.41992359	      0.07245667	     -3.47239283	     -9.09565555	      0.88154999
      1.53266667	     -1.65258857	      4.69599070	     -0.38840878	      0.46769596	      0.91269715	      0.28388297	     20.26959217	     -9.74511672	    -11.11775394	    -58.89857226	     12.15222000	      3.89149816	      8.06940077	      6.23801415	      9.25020325	     -2.00855689	    -14.47379449	      9.52610044	     -8.48500122	      0.10429297	     -3.58338865	     -8.89420997	      0.23533180
      1.53683333	     -1.61897578	      4.53433516	     -0.05978695	      0.47233398	      0.91339690	      0.28344267	     20.68014258	     -9.57938004	    -11.34846707	    -58.04868317	     12.37712675	      3.47810473	      5.17629914	      5.65062042	      9.12460866	     -1.56522440	    -14.04459459	      9.48606569	     -8.62374032	      0.31744341	     -3.68101168	     -8.71136762	     -0.06823877
      1.54100000	     -1.57271441	      4.36674255	      0.28411602	      0.47698056	      0.91407181	      0.28297404	     21.05702360	     -9.42872330	    -11.62247184	    -57.15459334	     12.44002224	      3.03125738	      5.14301966	      5.08379460	      8.96704043	     -1.25557466	    -13.68279296	      9.49365324	     -8.42460291	      0.32505084	     -3.80700258	     -8.48588363	     -0.36239139
